HIERARCHY
ROOT Hips
{
	OFFSET -3.958830 18.904000 13.208200
	CHANNELS 6 Xposition Yposition Zposition Zrotation Yrotation Xrotation 
	JOINT LHipJoint
	{
		OFFSET 0.000000 0.000000 0.000000
		CHANNELS 3 Zrotation Yrotation Xrotation
		JOINT LeftUpLeg
		{
			OFFSET 1.800000 -1.400000 0.085000
			CHANNELS 3 Zrotation Yrotation Xrotation
			JOINT LeftLeg
			{
				OFFSET 2.215000 -6.000000 0.000000
				CHANNELS 3 Zrotation Yrotation Xrotation
				JOINT LeftFoot
				{
					OFFSET 2.500000 -6.900000 0.000000
					CHANNELS 3 Zrotation Yrotation Xrotation
					JOINT LeftToeBase
					{
						OFFSET 0.200000 -0.500000 1.950000
						CHANNELS 3 Zrotation Yrotation Xrotation
						End Site
						{
							OFFSET 0.000000 0.000000 0.000000
						}
					}
				}
			}
		}
	}
	JOINT RHipJoint
	{
		OFFSET 0.000000 0.000000 0.000000
		CHANNELS 3 Zrotation Yrotation Xrotation
		JOINT RightUpLeg
		{
			OFFSET -1.800000 -1.400000 0.085000
			CHANNELS 3 Zrotation Yrotation Xrotation
			JOINT RightLeg
			{
				OFFSET -2.215000 -6.000000 0.000000
				CHANNELS 3 Zrotation Yrotation Xrotation
				JOINT RightFoot
				{
					OFFSET -2.500000 -6.900000 0.000000
					CHANNELS 3 Zrotation Yrotation Xrotation
					JOINT RightToeBase
					{
						OFFSET -0.200000 -0.500000 1.950000
						CHANNELS 3 Zrotation Yrotation Xrotation
						End Site
						{
							OFFSET 0.000000 0.000000 0.000000
						}
					}
				}
			}
		}
	}
	JOINT LowerBack
	{
		OFFSET 0.000000 0.000000 0.000000
		CHANNELS 3 Zrotation Yrotation Xrotation
		JOINT Spine
		{
			OFFSET -0.087000 1.940000 -0.288900
			CHANNELS 3 Zrotation Yrotation Xrotation
			JOINT Spine1
			{
				OFFSET 0.000000 1.950000 0.060000
				CHANNELS 3 Zrotation Yrotation Xrotation
				JOINT Neck
				{
					OFFSET 0.000000 0.000000 0.000000
					CHANNELS 3 Zrotation Yrotation Xrotation
					JOINT Neck1
					{
						OFFSET 0.000000 1.600000 0.340000
						CHANNELS 3 Zrotation Yrotation Xrotation
						JOINT Head
						{
							OFFSET 0.000000 1.667000 -0.240000
							CHANNELS 3 Zrotation Yrotation Xrotation
							End Site
							{
								OFFSET 0.000000 0.000000 0.000000
							}
						}
					}
				}
				JOINT LeftShoulder
				{
					OFFSET 0.000000 0.000000 0.000000
					CHANNELS 3 Zrotation Yrotation Xrotation
					JOINT LeftArm
					{
						OFFSET 2.700000 1.550000 -0.730000
						CHANNELS 3 Zrotation Yrotation Xrotation
						JOINT LeftForeArm
						{
							OFFSET 5.450000 0.000000 0.000000
							CHANNELS 3 Zrotation Yrotation Xrotation
							JOINT LeftHand
							{
								OFFSET 3.450000 0.000000 0.000000
								CHANNELS 3 Zrotation Yrotation Xrotation
								JOINT LeftHandIndex1
								{
									OFFSET 0.750000 0.000000 0.000000
									CHANNELS 3 Zrotation Yrotation Xrotation
									End Site
									{
										OFFSET 0.000000 0.000000 0.000000
									}
								}
							}
						}
					}
				}
				JOINT RightShoulder
				{
					OFFSET 0.000000 0.000000 0.000000
					CHANNELS 3 Zrotation Yrotation Xrotation
					JOINT RightArm
					{
						OFFSET -2.700000 1.550000 -0.730000
						CHANNELS 3 Zrotation Yrotation Xrotation
						JOINT RightForeArm
						{
							OFFSET -5.450000 0.000000 0.000000
							CHANNELS 3 Zrotation Yrotation Xrotation
							JOINT RightHand
							{
								OFFSET -3.450000 0.000000 0.000000
								CHANNELS 3 Zrotation Yrotation Xrotation
								JOINT RightHandIndex1
								{
									OFFSET -0.750000 0.000000 0.000000
									CHANNELS 3 Zrotation Yrotation Xrotation
									End Site
									{
										OFFSET 0.000000 0.000000 0.000000
									}
								}
							}
						}
					}
				}
			}
		}
	}
}
MOTION
Frames: 6
Frame Time: 0.016667
-0.271950 17.437160 -0.455540 -8.553484 -76.148169 2.276616 -15.286828 14.193496 3.128760 4.300121 -0.834069 -3.011301 -7.698750 8.827388 25.716957 -0.059641 5.717881 2.446354 0.920440 0.655540 0.885930 17.893601 -10.912004 2.992838 -6.352197 1.048720 -26.418454 0.061404 -3.031172 11.311333 -0.277326 -1.677248 3.720507 0.215550 -0.366290 0.241470 -4.072275 -2.895388 -7.481957 7.246979 -10.126901 11.815849 -10.301505 -8.782094 8.270436 3.631583 -0.570036 -13.925895 -3.495623 9.539551 53.741932 -5.369640 12.306410 -18.905910 -15.028211 -23.284963 10.010280 -38.872793 -7.922739 -2.064839 -41.690553 -25.999964 5.803114 -3.050054 3.320545 0.847270 -0.263530 0.476630 0.208710 7.449548 22.419328 5.633647 61.072379 28.588694 5.493376 42.536103 31.494303 8.635079 2.402920 -1.682867 0.033450 -0.026450 -0.437450 -0.307260 
-0.319370 17.421010 -0.464400 -10.782978 -75.404319 4.302268 -15.241908 14.145451 3.117296 5.278206 -1.311320 -4.127437 -7.973303 9.382390 27.988670 0.010462 6.022115 2.345747 0.901400 0.613580 0.900190 17.924249 -11.002038 2.994488 -5.651687 1.195460 -26.045621 -0.347334 -3.043986 12.021843 -0.279808 -1.700078 3.731241 0.179590 -0.375300 0.236700 -4.176014 -2.707524 -7.470455 8.422310 -10.058905 12.335079 -10.601648 -8.608325 7.782180 3.879955 0.052509 -13.457516 -2.003815 8.363666 52.580473 -6.252110 12.201250 -18.872310 -15.392849 -21.170940 9.729521 -38.557448 -4.826777 -3.463965 -44.123459 -25.400506 5.818648 -3.043517 3.327890 0.855600 -0.270380 0.478040 0.210410 7.211986 19.810295 5.482452 60.422410 24.836885 2.921746 50.082359 33.331497 10.899750 2.405632 -1.764909 0.027210 -0.039100 -0.454010 -0.315030 
-0.364980 17.411660 -0.485280 -11.629540 -73.966072 4.818604 -15.190350 14.116283 3.138255 6.023713 -1.820851 -5.470780 -8.027432 9.915213 30.519009 0.055565 6.385600 2.222072 0.817130 0.525180 0.839420 17.960220 -11.095496 2.967350 -5.080672 1.244218 -25.607489 -1.093982 -3.062286 13.152778 -0.257283 -1.757793 3.741757 0.131620 -0.331810 0.214610 -4.165610 -2.537184 -7.478264 8.755130 -9.653033 13.353797 -10.372125 -8.142923 7.475629 3.879051 0.862995 -13.085229 -0.273175 6.992274 50.820589 -6.109460 11.543980 -18.806720 -15.590577 -19.174939 9.280629 -37.976088 -2.110936 -4.841373 -46.719059 -26.006332 6.351770 -3.083913 3.295720 0.857480 -0.251220 0.443430 0.191830 7.395237 17.169982 5.675837 59.937732 20.093060 -0.142007 58.477553 36.459097 14.204688 2.380850 -1.799652 -0.010930 -0.010120 -0.405310 -0.316330 
-0.402670 17.401490 -0.508900 -11.897976 -72.169084 5.195003 -15.151549 14.034434 3.180706 6.698597 -2.311088 -7.125644 -8.562268 10.446310 32.154833 0.107815 6.662018 2.133158 0.796200 0.479210 0.852910 17.999087 -11.146738 2.941777 -4.577959 1.353163 -25.514271 -1.809333 -3.032788 14.255727 -0.251889 -1.814698 3.737266 0.102370 -0.322440 0.217150 -4.038342 -2.333733 -7.509071 8.468279 -8.724943 14.123560 -9.480421 -7.262125 7.318549 3.929877 2.272147 -12.586928 2.525769 4.724001 48.452222 -6.454610 10.620500 -18.652800 -15.572042 -17.214873 8.529444 -37.536351 -0.634578 -5.652171 -49.014553 -25.512449 6.559365 -3.110163 3.301718 0.849990 -0.238380 0.428880 0.189640 7.358702 14.241333 5.878066 59.599796 15.112121 -2.723103 68.109897 38.883097 18.223423 2.361313 -1.890260 -0.019290 -0.017400 -0.411840 -0.325000 
-0.424140 17.395100 -0.525530 -11.411816 -69.591976 4.936271 -15.106323 13.909677 3.255041 7.001923 -2.911589 -9.145645 -9.031777 10.869374 33.745539 0.111868 6.900150 2.039611 0.753510 0.423230 0.838760 18.044597 -11.201271 2.908979 -4.770387 1.356630 -25.498773 -1.565449 -3.227442 15.360008 -0.239062 -1.921826 3.698636 0.086000 -0.319510 0.193900 -3.946487 -2.072017 -7.551678 8.352676 -7.657660 15.042290 -8.926231 -6.145815 7.081657 3.939122 3.944037 -12.397749 5.631147 2.176017 46.210609 -6.198530 9.287870 -18.364720 -15.607573 -15.949788 7.723916 -36.792064 -0.020783 -6.081096 -49.529930 -23.412160 5.775890 -3.128247 3.277289 0.859640 -0.234280 0.403640 0.170360 7.366160 11.807243 6.536615 60.291607 9.548807 -5.385910 78.329683 41.149819 22.910932 2.336075 -1.963325 -0.057220 -0.018060 -0.397780 -0.343900 
-0.432440 17.388990 -0.537810 -10.663507 -66.839191 4.635160 -15.086103 13.718414 3.351491 7.400886 -3.449361 -11.214985 -10.303432 11.519800 34.613197 0.119671 7.154366 1.928276 0.727990 0.393930 0.799410 18.086785 -11.199559 2.853878 -5.452376 1.367760 -25.606369 -0.767534 -3.515632 16.109778 -0.227610 -2.040909 3.654048 0.082010 -0.300570 0.190210 -3.888738 -1.821565 -7.568816 8.306484 -6.576907 15.471839 -8.169359 -5.058643 7.326333 3.702414 4.879499 -12.050972 7.231504 0.217372 43.899075 -4.856560 7.352060 -18.324390 -15.057300 -14.200540 6.835360 -36.900743 0.382372 -6.638947 -50.373558 -23.264904 5.850104 -3.162091 3.287502 0.855480 -0.223790 0.372260 0.158660 7.356444 9.438245 6.927501 61.293483 5.039937 -7.411936 85.743672 42.576470 26.734358 2.288385 -2.012408 -0.070780 -0.018070 -0.365140 -0.346130 
